<svg width="358" height="141" viewBox="0 0 358 141" fill="none" xmlns="http://www.w3.org/2000/svg">
<mask id="path-1-inside-1_24_3" fill="white">
<path d="M60.1316 45.3652C57.6519 45.3652 54.9657 45.0791 52.0727 44.507C49.2487 43.9348 46.2869 43.24 43.1873 42.4226V122.609H32.0289V40.4609C31.2712 40.2974 30.5479 40.2156 29.8592 40.2156C29.2392 40.2156 28.5849 40.2156 27.8961 40.2156C22.1102 40.2156 17.6675 41.4826 14.568 44.0165C11.5373 46.4687 10.0219 50.9643 10.0219 57.5035C10.0219 62.4078 10.4697 66.1676 11.3651 68.7835C12.3294 71.3172 13.2937 73.2385 14.258 74.5461C12.536 74.5461 10.9173 74.2598 9.40205 73.6878C7.95558 73.0337 6.6813 72.0124 5.57925 70.6226C4.47718 69.2328 3.61619 67.4348 2.99628 65.2278C2.37636 62.9393 2.06641 60.1191 2.06641 56.7678C2.06641 53.4165 2.61744 50.1878 3.71951 47.0817C4.82157 43.9756 6.57798 41.2374 8.98877 38.867C11.4684 36.4148 14.6368 34.453 18.4941 32.9817C22.4202 31.5104 27.2073 30.7748 32.8554 30.7748C35.6106 30.7748 38.0902 30.9383 40.2944 31.2652C42.5674 31.5104 44.6682 31.8374 46.5968 32.2461C48.5943 32.573 50.5574 32.9 52.486 33.227C54.4144 33.4722 56.4467 33.5948 58.5818 33.5948C61.4747 33.5948 63.8857 33.3496 65.8141 32.8591C67.8118 32.287 69.4649 31.6739 70.7734 31.02C70.9801 32.4913 71.0834 33.8809 71.0834 35.1887C71.0834 41.9731 67.4326 45.3652 60.1316 45.3652ZM94.5368 61.3043V102.991C94.5368 103.808 94.5714 104.83 94.6401 106.057C94.7088 107.283 94.8814 108.509 95.1567 109.735C95.5013 110.879 95.9833 111.901 96.6032 112.8C97.2231 113.617 98.0842 114.026 99.1861 114.026C102.561 114.026 105.041 109.571 106.625 100.662H110.448C109.69 105.811 108.726 109.898 107.555 112.923C106.384 115.865 105.144 118.113 103.835 119.666C102.527 121.219 101.184 122.2 99.806 122.609C98.4283 123.099 97.1885 123.344 96.0866 123.344C94.5022 123.344 93.1249 123.018 91.9538 122.363C90.8519 121.709 89.8874 120.851 89.0609 119.789C88.303 118.726 87.6831 117.5 87.2011 116.11C86.7192 114.721 86.34 113.249 86.0646 111.697C85.0315 114.884 83.3437 117.623 81.002 119.911C78.729 122.2 75.9394 123.344 72.6332 123.344C70.5668 123.344 68.4658 122.854 66.3307 121.873C64.2643 120.892 62.37 119.298 60.6482 117.091C58.9951 114.803 57.6173 111.901 56.5154 108.386C55.4822 104.789 54.9657 100.417 54.9657 95.267C54.9657 91.5072 55.3102 87.5837 55.9988 83.4965C56.7567 79.4094 57.9273 75.6906 59.5117 72.3391C61.0961 68.9876 63.1278 66.2087 65.6075 64.0017C68.0871 61.7948 71.0834 60.6913 74.5962 60.6913C75.4228 60.6913 76.284 60.8139 77.1792 61.0591C78.1437 61.2226 79.039 61.5496 79.8655 62.04C80.7608 62.5304 81.5873 63.225 82.3452 64.1243C83.103 64.9415 83.7229 65.9635 84.2049 67.1896V61.3043H94.5368ZM75.2162 114.026C76.2493 114.026 77.2825 113.699 78.3157 113.045C79.4176 112.31 80.3821 111.37 81.2086 110.225C82.1039 108.999 82.8271 107.569 83.3783 105.934C83.9295 104.299 84.2049 102.542 84.2049 100.662V72.707C83.7229 71.3993 82.9651 70.2137 81.9319 69.1513C80.9674 68.0068 79.6935 67.4348 78.1091 67.4348C75.9048 67.4348 74.0109 68.3341 72.4265 70.1322C70.8421 71.8487 69.5682 74.0557 68.6037 76.753C67.6393 79.3689 66.916 82.2704 66.434 85.4583C66.0208 88.5645 65.8141 91.5476 65.8141 94.4087C65.8141 101.438 66.6061 106.465 68.1905 109.49C69.8436 112.514 72.1853 114.026 75.2162 114.026ZM116.993 36.7826V102.991C116.993 103.808 117.028 104.83 117.096 106.057C117.166 107.283 117.338 108.509 117.613 109.735C117.958 110.879 118.44 111.901 119.06 112.8C119.679 113.617 120.541 114.026 121.642 114.026C125.018 114.026 127.498 109.571 129.081 100.662H132.904C132.147 105.811 131.182 109.898 130.011 112.923C128.841 115.865 127.601 118.113 126.292 119.666C124.983 121.219 123.64 122.2 122.262 122.609C120.885 123.099 119.645 123.344 118.543 123.344C116.133 123.344 114.169 122.813 112.654 121.75C111.139 120.606 109.933 119.176 109.038 117.459C108.142 115.743 107.522 113.822 107.178 111.697C106.834 109.571 106.661 107.528 106.661 105.566V38.4991L116.993 36.7826ZM139.188 36.7826V81.2896L156.959 61.3043H166.981L149.727 77.8565H150.76C153.859 77.8565 156.305 78.4696 158.095 79.6957C159.955 80.9217 161.368 82.5157 162.332 84.4774C163.365 86.3576 164.019 88.4419 164.295 90.7304C164.639 92.9374 164.811 95.0217 164.811 96.9835C164.811 98.7 164.742 100.662 164.605 102.869C164.536 104.994 164.501 106.628 164.501 107.773C164.501 108.509 164.536 109.244 164.605 109.98C164.742 110.716 164.949 111.41 165.224 112.064C165.569 112.636 166.051 113.127 166.671 113.536C167.36 113.862 168.255 114.026 169.357 114.026C169.908 114.026 170.632 113.985 171.527 113.903C172.423 113.74 173.146 113.454 173.697 113.045C173.697 113.372 173.697 113.699 173.697 114.026C173.766 114.271 173.8 114.517 173.8 114.762C173.8 116.56 173.525 118.031 172.973 119.176C172.423 120.32 171.734 121.219 170.907 121.873C170.08 122.445 169.185 122.813 168.221 122.977C167.257 123.222 166.361 123.344 165.534 123.344C163.537 123.344 161.815 122.977 160.368 122.241C158.922 121.505 157.717 120.524 156.752 119.298C155.857 117.991 155.168 116.519 154.686 114.884C154.273 113.168 154.066 111.329 154.066 109.367C154.066 109.04 154.066 108.345 154.066 107.283C154.066 106.138 154.066 104.953 154.066 103.727C154.135 102.501 154.169 101.356 154.169 100.294C154.169 99.1494 154.169 98.3733 154.169 97.9644C154.169 93.7141 153.515 90.853 152.206 89.3817C150.898 87.9104 149.383 87.1748 147.66 87.1748C145.87 87.1748 144.251 87.8694 142.804 89.2591C141.427 90.6489 140.221 93.1011 139.188 96.6157V122.609H128.856V38.4991L139.188 36.7826ZM211.131 61.3043V102.991C211.131 103.808 211.165 104.83 211.234 106.057C211.303 107.283 211.475 108.509 211.751 109.735C212.095 110.879 212.577 111.901 213.197 112.8C213.817 113.617 214.678 114.026 215.78 114.026C219.155 114.026 221.635 109.571 223.219 100.662H227.042C226.284 105.811 225.32 109.898 224.149 112.923C222.978 115.865 221.738 118.113 220.429 119.666C219.121 121.219 217.778 122.2 216.4 122.609C215.022 123.099 213.782 123.344 212.68 123.344C210.269 123.344 208.306 122.813 206.791 121.75C205.276 120.606 204.07 119.176 203.175 117.459C202.28 115.743 201.66 113.822 201.315 111.697C200.971 109.571 200.799 107.528 200.799 105.566V61.3043H211.131ZM198.939 43.6487C198.939 41.4417 199.594 39.5209 200.902 37.8861C202.211 36.2513 203.83 35.4339 205.758 35.4339C207.618 35.4339 209.236 36.2513 210.614 37.8861C211.992 39.5209 212.68 41.4417 212.68 43.6487C212.68 45.9374 211.992 47.8583 210.614 49.4113C209.236 50.9643 207.618 51.7409 205.758 51.7409C203.83 51.7409 202.211 50.9643 200.902 49.4113C199.594 47.8583 198.939 45.9374 198.939 43.6487ZM233.53 42.6678V61.3043H241.485V65.5956H233.53V102.991C233.53 103.972 233.53 105.117 233.53 106.424C233.599 107.65 233.771 108.835 234.046 109.98C234.391 111.125 234.839 112.105 235.389 112.923C236.009 113.658 236.905 114.026 238.076 114.026C238.627 114.026 239.281 113.945 240.039 113.781C240.865 113.617 241.485 113.454 241.898 113.29C241.968 113.699 242.002 114.067 242.002 114.394C242.071 114.721 242.105 115.088 242.105 115.497C242.105 116.887 241.83 118.113 241.279 119.176C240.797 120.157 240.142 120.974 239.315 121.628C238.489 122.2 237.559 122.609 236.526 122.854C235.493 123.181 234.459 123.344 233.426 123.344C231.36 123.344 229.673 122.854 228.364 121.873C227.055 120.811 225.987 119.462 225.161 117.827C224.403 116.11 223.887 114.23 223.611 112.187C223.336 110.144 223.198 108.1 223.198 106.057V65.5956H219.685V61.3043H223.198V44.3843L233.53 42.6678Z"/>
</mask>
<path d="M60.1316 45.3652C57.6519 45.3652 54.9657 45.0791 52.0727 44.507C49.2487 43.9348 46.2869 43.24 43.1873 42.4226V122.609H32.0289V40.4609C31.2712 40.2974 30.5479 40.2156 29.8592 40.2156C29.2392 40.2156 28.5849 40.2156 27.8961 40.2156C22.1102 40.2156 17.6675 41.4826 14.568 44.0165C11.5373 46.4687 10.0219 50.9643 10.0219 57.5035C10.0219 62.4078 10.4697 66.1676 11.3651 68.7835C12.3294 71.3172 13.2937 73.2385 14.258 74.5461C12.536 74.5461 10.9173 74.2598 9.40205 73.6878C7.95558 73.0337 6.6813 72.0124 5.57925 70.6226C4.47718 69.2328 3.61619 67.4348 2.99628 65.2278C2.37636 62.9393 2.06641 60.1191 2.06641 56.7678C2.06641 53.4165 2.61744 50.1878 3.71951 47.0817C4.82157 43.9756 6.57798 41.2374 8.98877 38.867C11.4684 36.4148 14.6368 34.453 18.4941 32.9817C22.4202 31.5104 27.2073 30.7748 32.8554 30.7748C35.6106 30.7748 38.0902 30.9383 40.2944 31.2652C42.5674 31.5104 44.6682 31.8374 46.5968 32.2461C48.5943 32.573 50.5574 32.9 52.486 33.227C54.4144 33.4722 56.4467 33.5948 58.5818 33.5948C61.4747 33.5948 63.8857 33.3496 65.8141 32.8591C67.8118 32.287 69.4649 31.6739 70.7734 31.02C70.9801 32.4913 71.0834 33.8809 71.0834 35.1887C71.0834 41.9731 67.4326 45.3652 60.1316 45.3652ZM94.5368 61.3043V102.991C94.5368 103.808 94.5714 104.83 94.6401 106.057C94.7088 107.283 94.8814 108.509 95.1567 109.735C95.5013 110.879 95.9833 111.901 96.6032 112.8C97.2231 113.617 98.0842 114.026 99.1861 114.026C102.561 114.026 105.041 109.571 106.625 100.662H110.448C109.69 105.811 108.726 109.898 107.555 112.923C106.384 115.865 105.144 118.113 103.835 119.666C102.527 121.219 101.184 122.2 99.806 122.609C98.4283 123.099 97.1885 123.344 96.0866 123.344C94.5022 123.344 93.1249 123.018 91.9538 122.363C90.8519 121.709 89.8874 120.851 89.0609 119.789C88.303 118.726 87.6831 117.5 87.2011 116.11C86.7192 114.721 86.34 113.249 86.0646 111.697C85.0315 114.884 83.3437 117.623 81.002 119.911C78.729 122.2 75.9394 123.344 72.6332 123.344C70.5668 123.344 68.4658 122.854 66.3307 121.873C64.2643 120.892 62.37 119.298 60.6482 117.091C58.9951 114.803 57.6173 111.901 56.5154 108.386C55.4822 104.789 54.9657 100.417 54.9657 95.267C54.9657 91.5072 55.3102 87.5837 55.9988 83.4965C56.7567 79.4094 57.9273 75.6906 59.5117 72.3391C61.0961 68.9876 63.1278 66.2087 65.6075 64.0017C68.0871 61.7948 71.0834 60.6913 74.5962 60.6913C75.4228 60.6913 76.284 60.8139 77.1792 61.0591C78.1437 61.2226 79.039 61.5496 79.8655 62.04C80.7608 62.5304 81.5873 63.225 82.3452 64.1243C83.103 64.9415 83.7229 65.9635 84.2049 67.1896V61.3043H94.5368ZM75.2162 114.026C76.2493 114.026 77.2825 113.699 78.3157 113.045C79.4176 112.31 80.3821 111.37 81.2086 110.225C82.1039 108.999 82.8271 107.569 83.3783 105.934C83.9295 104.299 84.2049 102.542 84.2049 100.662V72.707C83.7229 71.3993 82.9651 70.2137 81.9319 69.1513C80.9674 68.0068 79.6935 67.4348 78.1091 67.4348C75.9048 67.4348 74.0109 68.3341 72.4265 70.1322C70.8421 71.8487 69.5682 74.0557 68.6037 76.753C67.6393 79.3689 66.916 82.2704 66.434 85.4583C66.0208 88.5645 65.8141 91.5476 65.8141 94.4087C65.8141 101.438 66.6061 106.465 68.1905 109.49C69.8436 112.514 72.1853 114.026 75.2162 114.026ZM116.993 36.7826V102.991C116.993 103.808 117.028 104.83 117.096 106.057C117.166 107.283 117.338 108.509 117.613 109.735C117.958 110.879 118.44 111.901 119.06 112.8C119.679 113.617 120.541 114.026 121.642 114.026C125.018 114.026 127.498 109.571 129.081 100.662H132.904C132.147 105.811 131.182 109.898 130.011 112.923C128.841 115.865 127.601 118.113 126.292 119.666C124.983 121.219 123.64 122.2 122.262 122.609C120.885 123.099 119.645 123.344 118.543 123.344C116.133 123.344 114.169 122.813 112.654 121.75C111.139 120.606 109.933 119.176 109.038 117.459C108.142 115.743 107.522 113.822 107.178 111.697C106.834 109.571 106.661 107.528 106.661 105.566V38.4991L116.993 36.7826ZM139.188 36.7826V81.2896L156.959 61.3043H166.981L149.727 77.8565H150.76C153.859 77.8565 156.305 78.4696 158.095 79.6957C159.955 80.9217 161.368 82.5157 162.332 84.4774C163.365 86.3576 164.019 88.4419 164.295 90.7304C164.639 92.9374 164.811 95.0217 164.811 96.9835C164.811 98.7 164.742 100.662 164.605 102.869C164.536 104.994 164.501 106.628 164.501 107.773C164.501 108.509 164.536 109.244 164.605 109.98C164.742 110.716 164.949 111.41 165.224 112.064C165.569 112.636 166.051 113.127 166.671 113.536C167.36 113.862 168.255 114.026 169.357 114.026C169.908 114.026 170.632 113.985 171.527 113.903C172.423 113.74 173.146 113.454 173.697 113.045C173.697 113.372 173.697 113.699 173.697 114.026C173.766 114.271 173.8 114.517 173.8 114.762C173.8 116.56 173.525 118.031 172.973 119.176C172.423 120.32 171.734 121.219 170.907 121.873C170.08 122.445 169.185 122.813 168.221 122.977C167.257 123.222 166.361 123.344 165.534 123.344C163.537 123.344 161.815 122.977 160.368 122.241C158.922 121.505 157.717 120.524 156.752 119.298C155.857 117.991 155.168 116.519 154.686 114.884C154.273 113.168 154.066 111.329 154.066 109.367C154.066 109.04 154.066 108.345 154.066 107.283C154.066 106.138 154.066 104.953 154.066 103.727C154.135 102.501 154.169 101.356 154.169 100.294C154.169 99.1494 154.169 98.3733 154.169 97.9644C154.169 93.7141 153.515 90.853 152.206 89.3817C150.898 87.9104 149.383 87.1748 147.66 87.1748C145.87 87.1748 144.251 87.8694 142.804 89.2591C141.427 90.6489 140.221 93.1011 139.188 96.6157V122.609H128.856V38.4991L139.188 36.7826ZM211.131 61.3043V102.991C211.131 103.808 211.165 104.83 211.234 106.057C211.303 107.283 211.475 108.509 211.751 109.735C212.095 110.879 212.577 111.901 213.197 112.8C213.817 113.617 214.678 114.026 215.78 114.026C219.155 114.026 221.635 109.571 223.219 100.662H227.042C226.284 105.811 225.32 109.898 224.149 112.923C222.978 115.865 221.738 118.113 220.429 119.666C219.121 121.219 217.778 122.2 216.4 122.609C215.022 123.099 213.782 123.344 212.68 123.344C210.269 123.344 208.306 122.813 206.791 121.75C205.276 120.606 204.07 119.176 203.175 117.459C202.28 115.743 201.66 113.822 201.315 111.697C200.971 109.571 200.799 107.528 200.799 105.566V61.3043H211.131ZM198.939 43.6487C198.939 41.4417 199.594 39.5209 200.902 37.8861C202.211 36.2513 203.83 35.4339 205.758 35.4339C207.618 35.4339 209.236 36.2513 210.614 37.8861C211.992 39.5209 212.68 41.4417 212.68 43.6487C212.68 45.9374 211.992 47.8583 210.614 49.4113C209.236 50.9643 207.618 51.7409 205.758 51.7409C203.83 51.7409 202.211 50.9643 200.902 49.4113C199.594 47.8583 198.939 45.9374 198.939 43.6487ZM233.53 42.6678V61.3043H241.485V65.5956H233.53V102.991C233.53 103.972 233.53 105.117 233.53 106.424C233.599 107.65 233.771 108.835 234.046 109.98C234.391 111.125 234.839 112.105 235.389 112.923C236.009 113.658 236.905 114.026 238.076 114.026C238.627 114.026 239.281 113.945 240.039 113.781C240.865 113.617 241.485 113.454 241.898 113.29C241.968 113.699 242.002 114.067 242.002 114.394C242.071 114.721 242.105 115.088 242.105 115.497C242.105 116.887 241.83 118.113 241.279 119.176C240.797 120.157 240.142 120.974 239.315 121.628C238.489 122.2 237.559 122.609 236.526 122.854C235.493 123.181 234.459 123.344 233.426 123.344C231.36 123.344 229.673 122.854 228.364 121.873C227.055 120.811 225.987 119.462 225.161 117.827C224.403 116.11 223.887 114.23 223.611 112.187C223.336 110.144 223.198 108.1 223.198 106.057V65.5956H219.685V61.3043H223.198V44.3843L233.53 42.6678Z" fill="black" stroke="white" stroke-width="3" mask="url(#path-1-inside-1_24_3)"/>
<path d="M287.018 120.759L287.017 120.76C286.92 121.013 286.966 121.28 287.093 121.467C287.216 121.648 287.368 121.703 287.509 121.678C288.653 121.472 289.795 121.245 290.933 120.997L287.018 120.759ZM287.018 120.759C287.454 119.628 287.853 118.481 288.215 117.319L288.218 117.31M287.018 120.759L288.218 117.31M288.218 117.31L288.221 117.3M288.218 117.31L288.221 117.3M288.221 117.3L288.233 117.257C289.445 113.384 290.435 108.926 290.799 104.757L290.828 104.431M288.221 117.3L290.828 104.431M290.828 104.431L290.607 104.188M290.828 104.431L290.607 104.188M290.607 104.188C284.783 97.7677 281.261 89.3702 281.261 80.1934C281.261 60.0453 298.246 43.663 319.255 43.663C340.265 43.663 357.25 60.0453 357.25 80.1934C357.25 100.342 340.265 116.724 319.255 116.724H319.254M290.607 104.188L319.254 116.724M319.254 116.724C315.489 116.73 311.739 116.193 308.1 115.125L307.799 115.037M319.254 116.724L307.799 115.037M307.799 115.037L307.525 115.189M307.799 115.037L307.525 115.189M307.525 115.189C305.068 116.555 299.718 119.08 290.933 120.997L307.525 115.189ZM292.924 101.437L292.925 101.437C293.353 101.909 293.686 102.487 293.896 103.128C294.104 103.767 294.182 104.451 294.124 105.131C293.787 108.697 293.15 112.219 292.219 115.654L291.883 116.894L293.128 116.577C299.948 114.841 304.134 112.824 306.064 111.749C306.955 111.253 307.972 111.139 308.927 111.42L308.927 111.42C312.296 112.408 315.769 112.904 319.256 112.899C339.001 112.898 353.907 97.6358 353.907 80.1934C353.907 62.7568 339 47.4888 319.255 47.4888C299.511 47.4888 284.604 62.7568 284.604 80.1934C284.604 88.2087 287.668 95.6393 292.924 101.437Z" fill="black" stroke="white" stroke-width="1.5"/>
</svg>
