<svg width="18" height="18" viewBox="0 0 18 18" fill="none" xmlns="http://www.w3.org/2000/svg">
<path d="M17.8358 0.164174C17.9136 0.242173 17.9669 0.341333 17.9889 0.449336C18.0109 0.55734 18.0007 0.669427 17.9595 0.771674L11.4131 17.137C11.3554 17.2812 11.2591 17.4066 11.1347 17.4995C11.0104 17.5924 10.8628 17.6492 10.7082 17.6636C10.5536 17.678 10.3981 17.6495 10.2587 17.5812C10.1192 17.5129 10.0014 17.4075 9.91801 17.2765L6.34276 11.6572L0.72339 8.08192C0.592122 7.99866 0.48641 7.88074 0.417918 7.74119C0.349426 7.60164 0.320817 7.44589 0.335248 7.29111C0.349678 7.13633 0.406588 6.98855 0.499696 6.86406C0.592804 6.73958 0.718492 6.64324 0.86289 6.58567L17.2283 0.0415493C17.3305 0.00038814 17.4426 -0.00982655 17.5506 0.0121741C17.6586 0.0341748 17.7578 0.0874214 17.8358 0.165299V0.164174ZM7.46552 11.3287L10.5716 16.2089L15.8963 2.89792L7.46552 11.3287ZM15.1009 2.10255L1.78989 7.42717L6.67126 10.5322L15.1009 2.10255Z" fill="#ACACAC"/>
</svg>
